<?xml version="1.0" standalone="no"?>
<!DOCTYPE svg PUBLIC "-//W3C//DTD SVG 20010904//EN"
 "http://www.w3.org/TR/2001/REC-SVG-20010904/DTD/svg10.dtd">
<svg version="1.0" xmlns="http://www.w3.org/2000/svg"
 width="512.000000pt" height="512.000000pt" viewBox="0 0 512.000000 512.000000"
 preserveAspectRatio="xMidYMid meet">

<g transform="translate(0.000000,512.000000) scale(0.100000,-0.100000)"
fill="#000000" stroke="none">
<path d="M4515 4383 c-70 -9 -165 -34 -230 -61 -39 -16 -368 -169 -733 -341
-365 -171 -670 -311 -677 -311 -8 0 -354 133 -770 296 -419 163 -788 302 -828
311 -139 29 -272 -1 -340 -76 -75 -83 -120 -235 -87 -296 7 -12 237 -177 511
-366 275 -188 496 -346 492 -350 -16 -15 -544 -259 -560 -259 -9 0 -230 54
-490 120 -291 74 -483 118 -497 114 -13 -3 -33 -15 -44 -27 -29 -32 -262 -458
-262 -480 0 -10 7 -31 15 -46 15 -31 19 -33 492 -227 134 -54 243 -102 243
-105 0 -4 -34 -22 -76 -40 -82 -36 -114 -66 -114 -108 0 -32 202 -466 232
-498 13 -14 33 -23 52 -23 19 0 318 135 793 357 420 196 765 354 766 352 2 -2
-28 -332 -66 -732 l-70 -728 20 -27 c31 -42 117 -89 187 -102 156 -29 289 53
375 233 16 34 167 469 335 965 167 497 306 905 308 906 2 2 276 130 609 285
333 155 635 298 670 319 35 20 105 78 155 127 74 73 98 106 132 175 95 193 78
358 -50 496 -114 121 -288 173 -493 147z m235 -193 c55 -15 126 -65 155 -108
84 -127 -2 -336 -192 -466 -64 -44 -1131 -552 -1140 -543 -2 3 10 42 27 88 40
109 40 149 -1 183 -57 48 -117 25 -147 -56 -10 -29 -180 -531 -376 -1116 -196
-585 -365 -1082 -376 -1106 -30 -71 -68 -125 -103 -146 -57 -35 -151 -19 -142
24 2 12 43 441 91 953 l88 933 -20 27 c-43 57 -124 51 -149 -11 -8 -18 -19
-95 -26 -173 l-12 -142 -763 -355 c-420 -196 -767 -356 -771 -356 -8 1 -123
242 -123 258 0 5 61 37 136 72 139 65 164 87 164 140 0 47 -49 73 -453 240
-218 90 -397 167 -397 171 0 8 137 250 148 261 5 5 206 -40 477 -106 l468
-116 66 29 c36 15 721 334 1522 708 800 375 1478 689 1505 698 101 34 252 41
344 15z m-3497 -94 c62 -15 1387 -527 1387 -537 0 -7 -568 -272 -583 -272 -13
0 -1023 689 -1033 704 -11 18 32 84 67 101 41 21 84 22 162 4z"/>
</g>
</svg>
