<?xml version="1.0" standalone="no"?>
<!DOCTYPE svg PUBLIC "-//W3C//DTD SVG 20010904//EN"
 "http://www.w3.org/TR/2001/REC-SVG-20010904/DTD/svg10.dtd">
<svg version="1.0" xmlns="http://www.w3.org/2000/svg"
 width="512.000000pt" height="512.000000pt" viewBox="0 0 512.000000 512.000000"
 preserveAspectRatio="xMidYMid meet">

<g transform="translate(0.000000,512.000000) scale(0.100000,-0.100000)"
fill="#000000" stroke="none">
<path d="M645 5108 c-45 -26 -44 -20 -45 -525 l0 -483 -84 0 c-168 0 -176 -12
-176 -253 l0 -175 -62 -4 c-51 -4 -65 -9 -85 -32 l-24 -28 3 -244 c3 -236 4
-244 25 -266 17 -16 38 -23 83 -26 l60 -4 0 -1449 0 -1449 -170 0 -170 0 0
-85 0 -85 2560 0 2560 0 0 85 0 85 -170 0 -170 0 0 1449 0 1449 60 4 c45 3 66
10 83 26 22 22 22 28 22 272 0 244 0 250 -22 272 -17 16 -38 23 -83 26 l-60 4
0 175 c0 241 -8 253 -176 253 l-84 0 0 483 c-1 508 0 500 -47 525 -31 17
-3799 17 -3828 0z m3705 -583 l0 -425 -1790 0 -1790 0 0 425 0 425 1790 0
1790 0 0 -425z m260 -730 l0 -125 -2050 0 -2050 0 0 125 0 125 2050 0 2050 0
0 -125z m170 -425 l0 -130 -2220 0 -2220 0 0 130 0 130 2220 0 2220 0 0 -130z
m-170 -1750 l0 -1450 -2050 0 -2050 0 0 1450 0 1450 2050 0 2050 0 0 -1450z"/>
<path d="M2103 4820 c-85 -18 -143 -63 -183 -143 -55 -110 -36 -251 45 -333
108 -107 285 -111 396 -7 61 57 84 115 84 208 -1 81 -27 150 -77 202 -58 60
-174 92 -265 73z m147 -102 c112 -57 124 -264 20 -338 -39 -28 -113 -37 -163
-21 -45 15 -93 68 -106 118 -50 178 95 318 249 241z"/>
<path d="M1340 4545 l0 -275 50 0 50 0 0 120 0 120 130 0 130 0 0 -120 0 -120
50 0 50 0 0 275 0 275 -50 0 -50 0 0 -120 0 -120 -130 0 -130 0 0 120 0 120
-50 0 -50 0 0 -275z"/>
<path d="M2450 4780 l0 -40 85 0 85 0 0 -235 0 -235 50 0 50 0 2 233 3 232 83
3 82 3 0 39 0 40 -220 0 -220 0 0 -40z"/>
<path d="M2960 4545 l0 -275 175 0 175 0 0 40 0 40 -125 0 -125 0 0 80 0 80
101 0 100 0 -3 38 -3 37 -97 3 -98 3 0 74 0 75 125 0 125 0 0 40 0 40 -175 0
-175 0 0 -275z"/>
<path d="M3400 4545 l0 -275 160 0 160 0 0 40 0 40 -110 0 -110 0 0 235 0 235
-50 0 -50 0 0 -275z"/>
<path d="M833 2813 c-13 -2 -32 -16 -43 -30 -19 -25 -20 -39 -20 -483 l0 -457
26 -24 26 -24 313 -3 c361 -3 376 -1 395 65 8 26 10 171 8 470 l-3 433 -28 27
-27 28 -313 1 c-171 1 -322 0 -334 -3z m527 -508 l0 -345 -210 0 -210 0 0 345
0 345 210 0 210 0 0 -345z"/>
<path d="M2283 2813 c-13 -2 -32 -16 -43 -30 -19 -25 -20 -39 -20 -479 l0
-453 24 -28 24 -28 318 -3 c352 -3 367 -1 390 54 18 44 21 862 3 914 -20 57
-42 60 -376 59 -164 -1 -308 -4 -320 -6z m532 -508 l0 -340 -212 -3 -213 -2 0
345 0 345 213 -2 212 -3 0 -340z"/>
<path d="M3634 2806 c-20 -9 -35 -26 -43 -46 -18 -52 -15 -870 3 -914 23 -55
38 -57 390 -54 l318 3 24 28 24 28 0 454 0 454 -24 28 -24 28 -319 2 c-253 2
-324 0 -349 -11z m546 -501 l0 -345 -212 2 -213 3 -3 330 c-1 181 0 336 3 342
3 10 55 13 215 13 l210 0 0 -345z"/>
<path d="M796 1424 l-26 -27 0 -459 0 -459 25 -24 24 -25 334 0 334 0 24 26
24 26 3 426 c2 235 0 442 -3 461 -4 18 -17 44 -30 57 l-24 24 -329 0 -329 0
-27 -26z m564 -484 l0 -340 -210 0 -210 0 0 340 0 340 210 0 210 0 0 -340z"/>
<path d="M2246 1424 l-26 -27 0 -459 0 -459 25 -24 24 -25 334 0 334 0 24 26
24 26 0 460 0 460 -28 24 -28 24 -328 0 -328 0 -27 -26z m574 -484 l0 -340
-215 0 -215 0 0 340 0 340 215 0 215 0 0 -340z"/>
<path d="M3613 1426 l-28 -24 0 -460 0 -460 24 -26 24 -26 334 0 334 0 24 25
25 24 0 458 c-1 344 -4 462 -13 474 -28 37 -50 39 -376 39 l-320 0 -28 -24z
m567 -486 l0 -340 -215 0 -215 0 0 340 0 340 215 0 215 0 0 -340z"/>
</g>
</svg>
