<?xml version="1.0" standalone="no"?>
<!DOCTYPE svg PUBLIC "-//W3C//DTD SVG 20010904//EN"
 "http://www.w3.org/TR/2001/REC-SVG-20010904/DTD/svg10.dtd">
<svg version="1.0" xmlns="http://www.w3.org/2000/svg"
 width="512.000000pt" height="512.000000pt" viewBox="0 0 512.000000 512.000000"
 preserveAspectRatio="xMidYMid meet">

<g transform="translate(0.000000,512.000000) scale(0.100000,-0.100000)"
fill="#000000" stroke="none">
<path d="M533 4836 c-102 -33 -185 -105 -232 -205 l-26 -56 0 -1695 0 -1695
27 -57 c37 -79 98 -142 177 -181 l66 -32 1695 0 1695 0 57 27 c79 37 142 98
181 177 l32 66 0 1695 0 1695 -32 66 c-39 79 -102 140 -181 177 l-57 27 -1680
2 c-1370 1 -1688 -1 -1722 -11z m3345 -318 c17 -17 17 -3259 0 -3276 -17 -17
-3259 -17 -3276 0 -17 17 -17 3259 0 3276 17 17 3259 17 3276 0z"/>
<path d="M4650 4418 c-50 -14 -96 -62 -109 -114 -8 -30 -11 -582 -11 -1866 0
-1405 -3 -1827 -12 -1836 -9 -9 -431 -12 -1837 -12 -1282 0 -1838 -3 -1866
-11 -84 -23 -137 -112 -114 -192 14 -51 54 -95 97 -107 26 -8 607 -10 1907 -8
l1870 3 66 32 c79 39 140 102 177 181 l27 57 0 1892 0 1892 -21 28 c-41 54
-111 79 -174 61z"/>
</g>
</svg>
