<?xml version="1.0" standalone="no"?>
<!DOCTYPE svg PUBLIC "-//W3C//DTD SVG 20010904//EN"
 "http://www.w3.org/TR/2001/REC-SVG-20010904/DTD/svg10.dtd">
<svg version="1.0" xmlns="http://www.w3.org/2000/svg"
 width="512.000000pt" height="512.000000pt" viewBox="0 0 512.000000 512.000000"
 preserveAspectRatio="xMidYMid meet">

<g transform="translate(0.000000,512.000000) scale(0.100000,-0.100000)"
fill="#000000" stroke="none">
<path d="M1605 4951 c-92 -24 -173 -90 -215 -176 l-25 -50 -3 -682 -3 -681
-207 -4 -208 -3 -76 -37 c-91 -45 -147 -103 -191 -196 l-32 -67 0 -1135 0
-1135 32 -67 c40 -84 98 -148 169 -184 45 -24 54 -33 49 -49 -30 -100 -11
-180 59 -250 102 -101 230 -101 332 0 59 59 80 117 71 195 l-6 50 329 0 329 0
-6 -50 c-9 -78 12 -136 71 -195 102 -101 230 -101 332 0 70 70 90 151 59 250
-5 17 2 24 40 43 74 36 132 97 174 183 l37 77 570 -274 c313 -151 579 -274
591 -274 12 0 33 10 46 22 30 27 1037 2119 1037 2153 0 13 -8 32 -18 44 -9 11
-352 181 -761 377 -804 386 -792 382 -889 350 -94 -32 -106 -51 -347 -552
l-220 -459 -5 440 -5 440 -32 67 c-44 93 -100 151 -191 196 l-76 37 -208 3
-207 4 -3 681 -3 682 -34 63 c-57 105 -144 160 -260 167 -36 2 -79 1 -96 -4z
m163 -178 c14 -10 35 -32 46 -47 21 -27 21 -39 24 -697 l2 -669 -160 0 -160 0
0 654 c0 440 4 664 11 683 14 37 47 72 84 89 40 19 119 12 153 -13z m-408
-1773 l0 -200 80 0 80 0 0 200 0 200 160 0 160 0 0 -200 0 -200 80 0 80 0 0
200 0 200 176 0 c110 0 192 -5 218 -12 55 -16 138 -99 154 -154 9 -30 12 -195
12 -621 l0 -581 -147 -303 c-142 -295 -147 -306 -147 -369 0 -117 57 -187 207
-255 85 -38 88 -41 83 -68 -16 -80 -90 -163 -164 -185 -57 -17 -1368 -17
-1426 0 -55 16 -138 99 -154 154 -17 60 -17 2168 0 2228 15 51 99 137 148 153
20 6 115 11 218 12 l182 1 0 -200z m2716 -291 c379 -182 690 -333 692 -334 8
-7 -63 -145 -72 -141 -106 43 -1376 663 -1388 678 -39 44 -3 128 55 128 13 0
334 -149 713 -331z m-138 -289 c380 -183 692 -336 692 -339 0 -8 -781 -1634
-790 -1644 -6 -7 -1328 621 -1387 658 -54 35 -60 21 328 827 199 414 375 779
391 812 l29 58 22 -20 c12 -11 334 -169 715 -352z m-2763 -1965 c50 -49 15
-135 -55 -135 -41 0 -80 39 -80 80 0 41 39 80 80 80 19 0 40 -9 55 -25z m1120
0 c50 -49 15 -135 -55 -135 -41 0 -80 39 -80 80 0 41 39 80 80 80 19 0 40 -9
55 -25z"/>
<path d="M1120 1720 l0 -920 80 0 80 0 0 920 0 920 -80 0 -80 0 0 -920z"/>
<path d="M1600 1720 l0 -920 80 0 80 0 0 920 0 920 -80 0 -80 0 0 -920z"/>
<path d="M2080 1720 l0 -920 80 0 80 0 0 920 0 920 -80 0 -80 0 0 -920z"/>
<path d="M3465 2325 c-168 -45 -301 -156 -370 -307 -99 -217 -57 -454 110
-624 114 -116 241 -168 405 -168 161 1 284 57 401 182 205 219 198 552 -17
768 -77 78 -175 133 -272 153 -71 15 -195 13 -257 -4z m117 -187 c-43 -38 -86
-87 -139 -156 l-18 -23 -68 31 c-37 16 -67 34 -67 38 0 11 56 63 98 92 46 31
137 59 195 59 l48 1 -49 -42z m138 -244 c-6 -29 -15 -56 -20 -59 -13 -8 -120
45 -120 60 0 8 33 47 73 87 l72 73 3 -53 c2 -30 -2 -78 -8 -108z m252 36 c22
-59 36 -205 20 -228 -7 -10 -24 -6 -76 19 -58 27 -67 35 -62 53 20 70 36 166
36 219 l1 62 30 -35 c16 -19 39 -59 51 -90z m-687 -82 c36 -18 65 -37 65 -43
0 -5 -7 -35 -15 -65 -8 -30 -18 -95 -22 -143 l-6 -88 -33 47 c-55 77 -83 189
-70 278 4 25 9 46 11 46 3 0 34 -14 70 -32z m286 -138 l60 -31 -23 -32 c-28
-40 -118 -127 -131 -127 -6 0 -8 27 -4 73 7 71 23 147 33 147 2 0 32 -14 65
-30z m282 -136 l72 -37 -48 -43 c-26 -23 -72 -55 -101 -69 -52 -25 -181 -54
-192 -42 -3 3 23 33 59 66 35 34 80 83 98 111 19 27 35 50 37 50 1 0 35 -16
75 -36z"/>
<path d="M2856 1161 l-35 -68 360 -173 c198 -95 361 -171 363 -169 17 19 66
133 59 140 -11 11 -693 339 -704 339 -5 0 -24 -31 -43 -69z"/>
<path d="M2380 4953 c-181 -17 -230 -26 -230 -40 0 -9 5 -45 12 -80 l12 -65
40 6 c136 19 298 28 428 23 l147 -6 5 32 c3 18 7 53 10 78 l5 46 -76 7 c-76 6
-286 6 -353 -1z"/>
<path d="M3829 4845 l-226 -114 -84 51 c-141 86 -227 109 -335 89 -88 -16
-161 -57 -236 -131 -74 -71 -86 -107 -50 -148 9 -11 325 -208 700 -437 757
-461 739 -452 847 -421 57 17 69 26 248 204 235 235 230 213 84 359 -83 83
-109 103 -132 103 -19 0 -66 -24 -137 -71 l-108 -72 -180 119 c-99 65 -180
122 -180 125 0 3 45 66 100 139 124 166 125 169 37 257 -50 49 -70 63 -93 62
-16 0 -128 -50 -255 -114z m106 -212 c-94 -124 -106 -153 -86 -192 15 -28 523
-361 551 -361 14 0 68 28 122 65 54 36 101 65 106 65 5 0 19 -11 33 -26 l23
-25 -141 -141 c-130 -128 -145 -140 -171 -135 -36 7 -1282 768 -1276 779 10
17 81 46 124 53 63 9 119 -11 248 -89 60 -36 120 -66 133 -65 13 0 112 45 219
99 107 54 198 99 203 99 4 1 -35 -56 -88 -126z"/>
<path d="M1060 4433 c-203 -159 -420 -410 -565 -651 -350 -584 -430 -1318
-215 -1972 39 -120 120 -310 132 -310 7 0 127 57 136 65 1 1 -14 37 -34 81
-19 43 -55 138 -79 210 -294 878 -9 1855 713 2442 55 45 91 80 88 88 -7 19
-79 114 -86 114 -3 0 -44 -30 -90 -67z"/>
<path d="M2586 4024 c-78 -19 -177 -73 -254 -138 -57 -48 -113 -76 -156 -76
-13 0 -16 -13 -16 -81 l0 -82 51 6 c66 8 161 53 219 104 69 61 101 80 168 102
108 37 249 19 337 -42 16 -11 53 -42 82 -68 110 -99 236 -104 352 -14 73 57
85 53 225 -83 199 -193 299 -268 485 -361 172 -87 347 -138 551 -161 52 -6 96
-12 98 -15 12 -12 62 -299 62 -357 l0 -38 80 0 80 0 0 40 c0 105 -56 388 -110
549 -32 99 -116 299 -131 316 -10 10 -139 -48 -139 -62 0 -5 25 -66 55 -138
l54 -130 -29 -3 c-45 -5 -192 25 -310 63 -226 74 -391 179 -610 391 -127 122
-165 154 -205 167 -90 31 -172 16 -254 -48 -63 -49 -87 -46 -163 20 -151 132
-341 183 -522 139z"/>
<path d="M3239 425 c-3 -2 -58 -18 -123 -34 -117 -30 -263 -54 -403 -66 l-73
-7 0 -80 0 -79 83 6 c143 12 288 35 412 67 66 16 130 32 143 35 27 7 27 10 0
95 -21 64 -28 75 -39 63z"/>
</g>
</svg>
