<?xml version="1.0" standalone="no"?>
<!DOCTYPE svg PUBLIC "-//W3C//DTD SVG 20010904//EN"
 "http://www.w3.org/TR/2001/REC-SVG-20010904/DTD/svg10.dtd">
<svg version="1.0" xmlns="http://www.w3.org/2000/svg"
 width="512.000000pt" height="512.000000pt" viewBox="0 0 512.000000 512.000000"
 preserveAspectRatio="xMidYMid meet">

<g transform="translate(0.000000,512.000000) scale(0.100000,-0.100000)"
fill="#000000" stroke="none">
<path d="M800 4110 l0 -450 -177 0 -178 0 -222 -578 -223 -578 0 -797 0 -797
308 0 309 0 36 -72 c86 -175 249 -277 443 -278 203 0 362 97 450 275 l37 75
977 0 977 0 37 -76 c62 -124 174 -220 305 -258 84 -25 221 -21 302 8 125 44
227 134 286 254 l36 72 309 0 308 0 0 638 0 638 -617 203 c-340 112 -623 208
-629 212 -6 5 -125 245 -264 534 l-253 525 -174 0 -173 0 0 450 0 450 -1105 0
-1105 0 0 -450z m600 -150 l0 -300 -150 0 -150 0 0 300 0 300 150 0 150 0 0
-300z m710 0 l0 -300 -205 0 -205 0 0 300 0 300 205 0 205 0 0 -300z m600 0
l0 -300 -150 0 -150 0 0 300 0 300 150 0 150 0 0 -300z m-1610 -965 l0 -365
-365 0 -364 0 24 63 c25 66 244 633 252 655 4 9 59 12 229 12 l224 0 0 -365z
m1310 0 l0 -365 -505 0 -505 0 0 365 0 365 505 0 505 0 0 -365z m886 100 c70
-143 148 -306 174 -362 l49 -103 -405 0 -404 0 0 365 0 365 230 -2 231 -3 125
-260z m975 -945 l549 -181 0 -379 0 -380 -162 1 -163 0 -32 68 c-36 76 -107
155 -180 201 -150 95 -375 96 -523 2 -96 -61 -169 -147 -201 -234 l-13 -38
-986 1 -985 0 -32 67 c-40 85 -88 140 -164 191 -248 166 -595 75 -720 -188
l-34 -70 -162 0 -163 -1 0 260 0 260 150 0 150 0 0 150 0 150 -150 0 -150 0 0
150 0 150 1711 0 1712 0 548 -180z m-3115 -905 c82 -24 144 -107 144 -192 -1
-82 -73 -175 -145 -189 -104 -19 -188 19 -232 106 -56 109 5 244 124 276 61
16 52 16 109 -1z m2940 -6 c38 -12 88 -63 108 -111 48 -114 -33 -254 -153
-266 -72 -7 -117 5 -158 41 -96 84 -95 220 1 304 20 18 49 35 64 39 15 3 32 7
37 9 12 4 59 -3 101 -16z"/>
</g>
</svg>
